<!-- https://www.flaticon.com/free-icon/tea-pot_16901051 -->
<svg id="Flat" viewBox="0 0 64 64" xmlns="http://www.w3.org/2000/svg">
    <path
        d="m10.431 28.871a9.586 9.586 0 0 0 -9.431-7.871v4a7.237 7.237 0 0 1 4 6.472v3.528a8 8 0 0 0 8 8h5v-9l-3.942-1.126a5.115 5.115 0 0 1 -3.627-4.003z"
        fill="var(--svg_dark_purple)"></path>
    <path d="m52 22a11 11 0 1 0 11 11 11 11 0 0 0 -11-11zm0 19a8 8 0 1 1 8-8 8 8 0 0 1 -8 8z"
        fill="var(--svg_dark_purple)"></path>
    <path d="m33 10a3 3 0 0 1 3 3v2a0 0 0 0 1 0 0h-6a0 0 0 0 1 0 0v-2a3 3 0 0 1 3-3z"
        fill="var(--svg_screen)"></path>
    <path
        d="m23.417 15h19.166a3 3 0 0 1 3 3v3a0 0 0 0 1 0 0h-25.166a0 0 0 0 1 0 0v-3a3 3 0 0 1 3-3z"
        fill="var(--svg_screen)"></path>
    <path
        d="m21.969 53h22.062a4 4 0 0 0 2.83-1.163 20.982 20.982 0 0 0 -1.278-30.837h-25.166a20.982 20.982 0 0 0 -1.278 30.837 4 4 0 0 0 2.83 1.163z"
        fill="var(--svg_light_purple)"></path>
</svg>