<!-- https://www.flaticon.com/free-icon/cpu_10554463 -->
<svg id="Flat" viewBox="0 0 64 64" xmlns="http://www.w3.org/2000/svg">
    <rect fill="var(--light_purple)" height="63.5" rx="5.75" width="35.5" x="14.25" y=".25"></rect>
    <g fill="var(--dark_purple)">
        <path d="m17.75 11h28.5v10h-28.5z"></path>
        <path d="m43 27.75h-3a1.75 1.75 0 0 1 0-3.5h3a1.75 1.75 0 0 1 0 3.5z"></path>
        <path d="m33 27.75h-3a1.75 1.75 0 0 1 0-3.5h3a1.75 1.75 0 0 1 0 3.5z"></path>
        <path
            d="m32 56.75a10.75 10.75 0 0 1 -8.361-17.507 1.75 1.75 0 1 1 2.721 2.2 7.169 7.169 0 0 0 -1.61 4.557 7.25 7.25 0 0 0 14.5 0 7.169 7.169 0 0 0 -1.61-4.556 1.75 1.75 0 0 1 2.721-2.2 10.75 10.75 0 0 1 -8.361 17.506z"></path>
        <path
            d="m32 46.75a1.751 1.751 0 0 1 -1.75-1.75v-8a1.75 1.75 0 0 1 3.5 0v8a1.751 1.751 0 0 1 -1.75 1.75z"></path>
    </g>
</svg>