<!-- https://www.flaticon.com/free-icon/server_10609733 -->
<svg id="Flat" viewBox="0 0 64 64" xmlns="http://www.w3.org/2000/svg">
    <path d="m3 17h58v4h-58z" fill="var(--dark_purple)"></path>
    <rect fill="var(--light_purple)" height="14" rx="2" width="62" x="1" y="3"></rect>
    <g fill="var(--dark_purple)">
        <rect height="8" rx="1.5" width="3" x="4" y="6"></rect>
        <rect height="8" rx="1.5" width="3" x="10" y="6"></rect>
        <rect height="8" rx="1.5" width="3" x="16" y="6"></rect>
        <rect height="8" rx="1.5" width="3" x="22" y="6"></rect>
    </g>
    <circle cx="57.5" cy="11.5" fill="var(--yellow)" r="2.5"></circle>
    <circle cx="49.5" cy="11.5" fill="var(--green)" r="2.5"></circle>
    <circle cx="41.5" cy="11.5" fill="var(--red)" r="2.5"></circle>
    <rect fill="var(--white)" height="1.5" rx=".75" width="21" x="39" y="5.25"></rect>
    <rect fill="var(--light_purple)" height="14" rx="2" width="62" x="1" y="21"></rect>
    <rect fill="var(--dark_purple)" height="8" rx="1.5" width="3" x="4" y="24"></rect>
    <rect fill="var(--dark_purple)" height="8" rx="1.5" width="3" x="10" y="24"></rect>
    <rect fill="var(--dark_purple)" height="8" rx="1.5" width="3" x="16" y="24"></rect>
    <rect fill="var(--dark_purple)" height="8" rx="1.5" width="3" x="22" y="24"></rect>
    <circle cx="57.5" cy="29.5" fill="var(--yellow)" r="2.5"></circle>
    <circle cx="49.5" cy="29.5" fill="var(--green)" r="2.5"></circle>
    <circle cx="41.5" cy="29.5" fill="var(--red)" r="2.5"></circle>
    <rect fill="var(--white)" height="1.5" rx=".75" width="21" x="39" y="23.25"></rect>
    <rect fill="var(--light_purple)" height="14" rx="2" width="62" x="1" y="39"></rect>
    <rect fill="var(--dark_purple)" height="8" rx="1.5" width="3" x="4" y="42"></rect>
    <rect fill="var(--dark_purple)" height="8" rx="1.5" width="3" x="10" y="42"></rect>
    <rect fill="var(--dark_purple)" height="8" rx="1.5" width="3" x="16" y="42"></rect>
    <rect fill="var(--dark_purple)" height="8" rx="1.5" width="3" x="22" y="42"></rect>
    <circle cx="57.5" cy="47.5" fill="var(--yellow)" r="2.5"></circle>
    <circle cx="49.5" cy="47.5" fill="var(--green)" r="2.5"></circle>
    <circle cx="41.5" cy="47.5" fill="var(--red)" r="2.5"></circle>
    <rect fill="var(--white)" height="1.5" rx=".75" width="21" x="39" y="41.25"></rect>
    <path d="m3 35h58v4h-58z" fill="var(--dark_purple)"></path>
    <path d="m3 53h58a0 0 0 0 1 0 0v2a2 2 0 0 1 -2 2h-54a2 2 0 0 1 -2-2v-2a0 0 0 0 1 0 0z"
        fill="var(--dark_purple)"></path>
    <path d="m58 61h-6l-2-4h8z" fill="var(--light_purple)"></path>
    <path d="m6 61h6l2-4h-8z" fill="var(--light_purple)"></path>
</svg>
