<!-- https://www.flaticon.com/free-icon/mobile-app_16931432 -->
<svg id="Flat" viewBox="0 0 64 64" xmlns="http://www.w3.org/2000/svg">
    <path d="m50 54v-50a3 3 0 0 0 -3-3h-30a3 3 0 0 0 -3 3v50z" fill="var(--svg_screen)"></path>
    <path
        d="m17 63.75h30a3.755 3.755 0 0 0 3.75-3.75v-56a3.755 3.755 0 0 0 -3.75-3.75h-30a3.755 3.755 0 0 0 -3.75 3.75v56a3.755 3.755 0 0 0 3.75 3.75zm-2.25-10.5v-49.25a2.253 2.253 0 0 1 2.25-2.25h9.375l1.418 2.835a.75.75 0 0 0 .671.415h7.072a.75.75 0 0 0 .671-.415l1.418-2.835h9.375a2.253 2.253 0 0 1 2.25 2.25v49.25z"
        fill="var(--svg_light_purple)"></path>
    <g fill="var(--svg_dark_purple)">
        <rect height="3" rx="1.5" transform="matrix(-1 0 0 -1 64 117)" width="10" x="27" y="57"></rect>
        <path d="m46.75 58.5a.75.75 0 0 0 -.75-.75h-3a.75.75 0 0 0 0 1.5h3a.75.75 0 0 0 .75-.75z"></path>
        <path d="m21.75 58.5a.75.75 0 0 0 -.75-.75h-3a.75.75 0 0 0 0 1.5h3a.75.75 0 0 0 .75-.75z"></path>
    </g>
</svg>