<!-- https://www.flaticon.com/free-icon/dvr_16962894 -->
<svg id="Flat" viewBox="0 0 64 64" xmlns="http://www.w3.org/2000/svg">
    <rect fill="var(--svg_light_purple)" height="16" rx="2" width="62" x="1" y="43"></rect>
    <path d="m4 59h56a0 0 0 0 1 0 0v2a2 2 0 0 1 -2 2h-52a2 2 0 0 1 -2-2v-2a0 0 0 0 1 0 0z"
        fill="var(--svg_dark_purple)"></path>
    <path d="m20 47h15v8h-15z" fill="var(--svg_screen)"></path>
    <path d="m41 47.75h-2a.75.75 0 0 1 0-1.5h2a.75.75 0 0 1 0 1.5z" fill="var(--svg_dark_purple)"></path>
    <path d="m41 51.75h-2a.75.75 0 0 1 0-1.5h2a.75.75 0 0 1 0 1.5z" fill="var(--svg_dark_purple)"></path>
    <path d="m41 55.75h-2a.75.75 0 0 1 0-1.5h2a.75.75 0 0 1 0 1.5z" fill="var(--svg_dark_purple)"></path>
    <path d="m47 47.75h-2a.75.75 0 0 1 0-1.5h2a.75.75 0 0 1 0 1.5z" fill="var(--svg_dark_purple)"></path>
    <path d="m47 51.75h-2a.75.75 0 0 1 0-1.5h2a.75.75 0 0 1 0 1.5z" fill="var(--svg_dark_purple)"></path>
    <path d="m47 55.75h-2a.75.75 0 0 1 0-1.5h2a.75.75 0 0 1 0 1.5z" fill="var(--svg_dark_purple)"></path>
    <circle cx="55" cy="51" fill="var(--svg_red)" r="4"></circle>
    <circle cx="7" cy="51" fill="var(--svg_green)" r="2"></circle>
    <circle cx="14" cy="51" fill="var(--svg_yellow)" r="2"></circle>
    <path d="m28 37h8v6h-8z" fill="var(--svg_dark_purple)"></path>
    <rect fill="var(--svg_light_purple)" height="36" rx="2" width="62" x="1" y="1"></rect>
    <g fill="var(--svg_screen)">
        <path d="m42.25 14.75h17.75v8.5h-17.75z"></path>
        <path d="m23.25 4h17.5v9.25h-17.5z"></path>
        <path d="m23.25 14.75h17.5v8.5h-17.5z"></path>
        <path d="m23.25 24.75h17.5v9.25h-17.5z"></path>
        <path d="m4 14.75h17.75v8.5h-17.75z"></path>
        <path d="m42.25 24.75h17.75v9.25h-17.75z"></path>
        <path d="m4 24.75h17.75v9.25h-17.75z"></path>
        <path d="m42.25 4h17.75v9.25h-17.75z"></path>
        <path d="m4 4h17.75v9.25h-17.75z"></path>
    </g>
</svg>